HIERARCHY
ROOT hip
{
	OFFSET 0.000000 0.000000 0.000000 
	CHANNELS 6 Xposition Yposition Zposition Xrotation Zrotation Yrotation
	JOINT abdomen
	{
		OFFSET 0.000000 3.402643 0.000000 
		CHANNELS 3 Xrotation Zrotation Yrotation
		JOINT chest
		{
			OFFSET 0.000000 8.438565 -0.680529 
			CHANNELS 3 Xrotation Zrotation Yrotation
			JOINT neck
			{
				OFFSET 0.000000 10.207942 -0.272212 
				CHANNELS 3 Xrotation Zrotation Yrotation
				JOINT head
				{
					OFFSET 0.000000 3.130431 0.000000 
					CHANNELS 3 Xrotation Zrotation Yrotation
					End Site
					{
						OFFSET 0.000000 3.130435 0.000000 
					}
				}
			}
			JOINT lCollar
			{
				OFFSET 3.470700 6.669187 -0.816635 
				CHANNELS 3 Yrotation Zrotation Xrotation
				JOINT lShldr
				{
					OFFSET 3.198488 0.000000 0.000000 
					CHANNELS 3 Zrotation Yrotation Xrotation
					JOINT lForeArm
					{
						OFFSET 10.139888 0.000000 0.000000 
						CHANNELS 3 Yrotation Zrotation Xrotation
						JOINT lHand
						{
							OFFSET 8.370511 0.000000 0.000000 
							CHANNELS 3 Zrotation Yrotation Xrotation
							End Site
							{
								OFFSET 4.083176 0.000000 0.000000 
							}
						}
					}
				}
			}
			JOINT rCollar
			{
				OFFSET -3.470700 6.669187 -0.816635 
				CHANNELS 3 Yrotation Zrotation Xrotation
				JOINT rShldr
				{
					OFFSET -3.198488 0.000000 0.000000 
					CHANNELS 3 Zrotation Yrotation Xrotation
					JOINT rForeArm
					{
						OFFSET -10.139888 0.000000 0.000000 
						CHANNELS 3 Yrotation Zrotation Xrotation
						JOINT rHand
						{
							OFFSET -8.370511 0.000000 0.000000 
							CHANNELS 3 Zrotation Yrotation Xrotation
							End Site
							{
								OFFSET -4.083176 0.000000 0.000000 
							}
						}
					}
				}
			}
		}
	}
	JOINT lThigh
	{
		OFFSET 5.308129 -1.633274 1.361059 
		CHANNELS 3 Xrotation Zrotation Yrotation
		JOINT lShin
		{
			OFFSET -2.041588 -20.007561 0.000000 
			CHANNELS 3 Xrotation Zrotation Yrotation
			JOINT lFoot
			{
				OFFSET 0.000000 -19.190928 -1.224953 
				CHANNELS 3 Xrotation Yrotation Zrotation
				End Site
				{
					OFFSET 0.000000 -2.449906 4.627600 
				}
			}
		}
	}
	JOINT rThigh
	{
		OFFSET -5.308129 -1.633274 1.361059 
		CHANNELS 3 Xrotation Zrotation Yrotation
		JOINT rShin
		{
			OFFSET 2.041588 -20.007561 0.000000 
			CHANNELS 3 Xrotation Zrotation Yrotation
			JOINT rFoot
			{
				OFFSET 0.000000 -19.190928 -1.224953 
				CHANNELS 3 Xrotation Yrotation Zrotation
				End Site
				{
					OFFSET 0.000000 -2.449906 4.627600 
				}
			}
		}
	}
}
MOTION
Frames: 8
Frame Time: 0.016667
-0.866870 45.027519 -0.302471 0.674500 -2.558420 -1.925050 -20.100800 1.335750 0.447146 16.601101 0.857328 0.380181 18.631189 -3.316106 -4.651871 14.556000 4.587150 -0.999911 2.000000 -2.000000 0.000000 -86.117599 -39.790699 -147.884995 85.576698 -0.225394 0.136356 0.078988 -0.095117 -169.059998 -2.000000 2.000000 0.000000 77.638397 30.235100 -159.354996 -92.461403 0.209397 0.117077 -0.140426 0.142136 160.714996 -7.606354 3.920049 -5.719303 23.977705 3.748670 1.596665 -21.970732 12.837425 5.501886 2.024688 1.455269 -2.485191 3.587967 -4.212269 -0.124815 -12.678427 -8.062847 -2.225571 
-0.864167 45.032665 -0.334223 0.713591 -2.538870 -2.014440 -19.994301 1.479760 0.469694 16.698601 1.042550 0.408224 18.989719 -3.444613 -4.733449 14.712700 4.584490 -1.026480 2.000000 -2.000000 0.000000 -86.021103 -40.347099 -147.785995 85.254402 -0.226160 0.136294 0.078829 -0.094862 -168.953003 -2.000000 2.000000 0.000000 77.969803 30.078100 -159.003998 -92.285599 0.209786 0.117093 -0.142566 0.143236 159.856003 -7.648627 3.914196 -5.678829 23.958775 3.742985 1.595653 -21.926168 12.894594 5.520996 1.944971 1.420574 -2.416096 3.582510 -4.204083 -0.124398 -12.662878 -8.085966 -2.235610 
-0.857292 45.037685 -0.372301 0.723361 -2.529100 -2.073340 -19.956600 1.669270 0.474527 16.639700 1.247080 0.422452 19.497192 -3.586832 -4.833163 14.918600 4.590520 -1.057080 2.000000 -2.000000 0.000000 -85.747902 -40.678600 -147.511993 85.059097 -0.226625 0.136255 0.076213 -0.090532 -167.145996 -2.000000 2.000000 0.000000 78.721100 29.804100 -158.750000 -92.041496 0.210327 0.117114 -0.146251 0.145037 158.391006 -7.685823 3.884792 -5.686936 23.948109 3.748319 1.596778 -21.919117 12.972641 5.534324 1.878518 1.403537 -2.364151 3.593391 -4.208138 -0.134138 -12.647641 -8.132979 -2.237464 
-0.850415 45.042576 -0.410375 0.742906 -2.519320 -2.122900 -19.919300 1.868050 0.476268 16.570999 1.461300 0.445102 20.020679 -3.743459 -4.946305 15.134300 4.596310 -1.086850 2.000000 -2.000000 0.000000 -85.474800 -41.010101 -147.238007 84.873596 -0.227066 0.136216 0.073723 -0.076332 -165.330002 -2.000000 2.000000 0.000000 79.472397 29.520300 -158.511993 -91.787498 0.210889 0.117132 -0.149982 0.146743 156.925995 -7.731720 3.861262 -5.703985 23.939623 3.738822 1.594901 -21.892817 13.032516 5.567171 1.825370 1.385944 -2.321027 3.592702 -4.195873 -0.134025 -12.628716 -8.151039 -2.223316 
-0.846036 45.045921 -0.436899 0.772254 -2.558360 -2.193080 -19.959700 2.030480 0.520073 16.395000 1.548640 0.483074 20.430969 -3.937232 -5.066666 15.310100 4.564420 -1.127310 2.000000 -2.000000 0.000000 -85.123001 -41.058498 -147.022995 84.961502 -0.226857 0.136235 0.071142 -0.071355 -163.328003 -2.000000 2.000000 0.000000 80.214203 29.188400 -158.561005 -91.611801 0.211278 0.117144 -0.151611 0.147453 156.291000 -7.796063 3.919050 -5.653198 23.933346 3.716923 1.600226 -21.856951 13.022756 5.590954 1.756406 1.420057 -2.274959 3.590636 -4.198136 -0.143991 -12.586062 -8.158739 -2.233736 
-0.841657 45.049259 -0.463424 0.811374 -2.587630 -2.253830 -20.000099 2.196270 0.572479 16.228701 1.645690 0.520053 20.841696 -4.130626 -5.178106 15.485700 4.522960 -1.169900 2.000000 -2.000000 0.000000 -84.780899 -41.097099 -146.817993 85.049400 -0.226648 0.136253 0.068725 -0.066267 -161.315994 -2.000000 2.000000 0.000000 80.956001 28.856501 -158.610992 -91.426201 0.211689 0.117155 -0.153274 0.148155 155.647003 -7.878217 3.958212 -5.581398 23.962078 3.723157 1.601302 -21.829271 13.016016 5.571051 1.689731 1.446354 -2.219362 3.572509 -4.200259 -0.134162 -12.549715 -8.168096 -2.214736 
-0.831713 45.053383 -0.488998 0.830906 -2.558320 -2.342180 -19.982599 2.402830 0.622783 16.169701 1.820820 0.573296 21.145712 -4.373708 -5.306599 15.612100 4.472820 -1.218500 2.000000 -2.000000 0.000000 -84.458099 -41.028301 -146.582993 85.195801 -0.226300 0.136283 0.066055 -0.060033 -158.893997 -2.000000 2.000000 0.000000 81.697899 28.631901 -158.649994 -91.035599 0.212554 0.117173 -0.155300 0.158746 154.865005 -7.921414 3.933107 -5.462193 23.972931 3.719262 1.610136 -21.796638 12.968871 5.557958 1.627696 1.404229 -2.159296 3.584039 -4.190428 -0.134599 -12.547039 -8.172000 -2.215496 
-0.821767 45.057358 -0.514574 0.850438 -2.529020 -2.420740 -19.955500 2.622170 0.679380 16.100800 1.986170 0.616835 21.452820 -4.607217 -5.435489 15.728800 4.422870 -1.268070 2.000000 -2.000000 0.000000 -84.125504 -40.959499 -146.348999 85.352097 -0.225928 0.136313 0.063651 -0.053692 -156.472000 -2.000000 2.000000 0.000000 82.439796 28.407400 -158.699997 -90.635201 0.213442 0.117186 -0.157363 0.149788 154.074005 -7.945264 3.923454 -5.333461 23.945339 3.707935 1.618401 -21.762207 12.946693 5.551500 1.563179 1.364883 -2.098881 3.578068 -4.196020 -0.144187 -12.530832 -8.165304 -2.200752 
